<?xml version="1.0" encoding="utf-8"?>
<!-- Generator: Adobe Illustrator 23.0.1, SVG Export Plug-In . SVG Version: 6.00 Build 0)  -->
<svg version="1.1" id="Layer_1" xmlns="http://www.w3.org/2000/svg" xmlns:xlink="http://www.w3.org/1999/xlink" x="0px" y="0px"
	 viewBox="0 0 246.3 95.4" style="enable-background:new 0 0 246.3 95.4;" xml:space="preserve">
<style type="text/css">
	.st0{fill:#F1F3FF;}
	.st1{fill:#282829;}
</style>
<g transform="translate(0 0.003)">
	<g id="Layer_8" transform="translate(0 -0.003)">
		<path id="Path_1" class="st0" d="M0.9,26.3h11.5c3.9,0,7.1,3.2,7.1,7.1l0,0v61.1c0,0.5-0.4,0.9-0.9,0.9H7.1
			c-3.9,0-7.1-3.2-7.1-7.1V27.2C0,26.7,0.4,26.3,0.9,26.3C0.9,26.3,0.9,26.3,0.9,26.3z"/>
		<path id="Path_2" class="st0" d="M46.6,26.3h11.5c3.9,0,7.1,3.2,7.1,7.1l0,0v61.1c0,0.5-0.4,0.9-0.9,0.9H52.8
			c-3.9,0-7.1-3.2-7.1-7.1l0,0V27.2C45.7,26.7,46.1,26.3,46.6,26.3z"/>
		<path id="Path_3" class="st0" d="M21.4,0.5h15.9c3.9,0,7.1,3.2,7.1,7.1c0,0,0,0,0,0v15.6c0,0.5-0.4,0.9-0.9,0.9c0,0,0,0,0,0H27.6
			c-3.9,0-7.1-3.2-7.1-7.1c0,0,0,0,0,0V1.3C20.5,0.8,20.9,0.5,21.4,0.5z"/>
		<path id="Path_4" class="st0" d="M94.9,27.2v1.1c0,0.8,0.1,1.6,0.2,2.5c0.1,0.7,0.4,1.3,0.8,1.9c0.4,0.5,1,0.9,1.6,1.2
			c0.8,0.3,1.6,0.5,2.5,0.4c1.2,0,2.3-0.4,3.2-1.2c1-0.9,1.5-2.2,1.4-3.6c0-0.8-0.1-1.5-0.4-2.2c-0.2-0.6-0.6-1.2-1.1-1.7
			c-0.6-0.6-1.4-1-2.1-1.4c-1.1-0.5-2.2-0.9-3.3-1.3c-1.5-0.5-3-1.1-4.5-1.9c-1.2-0.6-2.2-1.4-3.2-2.4c-0.8-0.9-1.5-2-1.9-3.2
			c-0.4-1.4-0.6-2.8-0.6-4.2c0-3.8,1.1-6.7,3.2-8.5s5-2.8,8.7-2.8c1.6,0,3.2,0.2,4.8,0.6c1.4,0.3,2.7,1,3.8,1.8
			c1.1,0.9,1.9,2,2.5,3.2c0.6,1.5,0.9,3.1,0.9,4.7v1.1h-7.4c0.1-1.5-0.2-2.9-1-4.2c-0.7-1-2-1.6-3.2-1.5c-0.7,0-1.5,0.1-2.2,0.4
			c-0.5,0.2-1,0.6-1.4,1C96,7.5,95.7,8,95.6,8.5c-0.1,0.5-0.2,1.1-0.2,1.7c0,1,0.2,2.1,0.8,3c0.8,1,2,1.8,3.2,2.2l6,2.6
			c1.3,0.5,2.5,1.2,3.6,2c0.9,0.6,1.6,1.4,2.2,2.3c0.6,0.8,0.9,1.7,1.2,2.7c0.2,1.1,0.3,2.1,0.3,3.2c0,4.1-1.2,7-3.5,8.9
			s-5.6,2.8-9.8,2.8c-4.4,0-7.5-1-9.4-2.9c-1.9-1.9-2.8-4.6-2.8-8.2v-1.6L94.9,27.2z"/>
		<path id="Path_5" class="st0" d="M139.5,0.8v6.4h-13.7v9.1h12.9v6.4h-12.9v10.3H140v6.4h-22V0.8H139.5z"/>
		<path id="Path_6" class="st0" d="M145.3,0.8h13c1.5,0,3,0.2,4.4,0.5c1.3,0.3,2.4,0.8,3.5,1.6c1,0.8,1.8,1.8,2.3,3
			c0.6,1.5,0.8,3.1,0.8,4.6c0.1,1.9-0.5,3.8-1.5,5.4c-1,1.5-2.6,2.6-4.4,3V19c2,0.2,3.8,1.2,5.1,2.7c1.3,1.8,2,4,1.9,6.2
			c0,1.5-0.2,2.9-0.6,4.3c-0.4,1.3-1.1,2.6-2,3.6c-1,1.1-2.3,1.9-3.7,2.5c-1.8,0.7-3.8,1-5.7,0.9h-13.1V0.8z M153,16.5h2.2
			c1.7,0.1,3.3-0.3,4.7-1.2c1.1-1,1.6-2.4,1.5-3.9c0-1.8-0.4-3.1-1.3-3.9c-1.2-0.9-2.8-1.3-4.3-1.1H153L153,16.5z M153,33.5h3
			c1.6,0.1,3.2-0.4,4.5-1.2c1.2-0.8,1.7-2.4,1.7-4.6c0-0.9-0.1-1.9-0.5-2.8c-0.3-0.7-0.7-1.3-1.2-1.8c-0.5-0.5-1.2-0.8-1.9-0.9
			c-0.8-0.2-1.6-0.3-2.4-0.3H153L153,33.5z"/>
		<path id="Path_7" class="st0" d="M182.8,27.2v1.1c0,0.8,0.1,1.6,0.2,2.5c0.1,0.7,0.4,1.3,0.8,1.9c0.4,0.5,1,0.9,1.6,1.2
			c0.8,0.3,1.7,0.5,2.5,0.4c1.2,0,2.3-0.4,3.2-1.2c1-0.9,1.5-2.2,1.4-3.6c0-0.8-0.1-1.5-0.3-2.2c-0.2-0.6-0.6-1.2-1.2-1.7
			c-0.6-0.6-1.4-1-2.1-1.4c-1.1-0.5-2.2-0.9-3.3-1.3c-1.5-0.5-3-1.1-4.5-1.9c-1.2-0.6-2.2-1.4-3.2-2.4c-0.8-0.9-1.5-2-1.9-3.2
			c-0.4-1.4-0.6-2.8-0.6-4.2c0-3.8,1.1-6.7,3.2-8.5s5-2.8,8.7-2.8c1.6,0,3.2,0.2,4.8,0.6c1.4,0.3,2.7,1,3.8,1.8
			c1.1,0.9,1.9,2,2.5,3.2c0.6,1.5,0.9,3.1,0.9,4.7v1.1H192c0.1-1.5-0.2-2.9-1-4.2c-0.7-1-2-1.6-3.2-1.5c-0.7,0-1.5,0.1-2.2,0.4
			c-0.5,0.2-1,0.6-1.4,1c-0.3,0.4-0.6,0.9-0.7,1.4c-0.1,0.5-0.2,1.1-0.2,1.7c0,1,0.2,2.1,0.8,3c0.8,1,2,1.8,3.2,2.2l6,2.6
			c1.3,0.5,2.5,1.2,3.6,2c0.9,0.6,1.6,1.4,2.2,2.3c0.6,0.8,0.9,1.7,1.2,2.7c0.2,1.1,0.3,2.1,0.3,3.2c0,4.1-1.2,7-3.5,8.9
			s-5.6,2.8-9.8,2.8c-4.4,0-7.5-1-9.4-2.9s-2.8-4.6-2.8-8.2v-1.6L182.8,27.2z"/>
		<path id="Path_8" class="st0" d="M206.3,39.2V0.8h7.8v38.5H206.3z"/>
		<path id="Path_9" class="st0" d="M221.1,0.8h13c1.5,0,3,0.2,4.4,0.5c1.3,0.3,2.4,0.8,3.5,1.6c1,0.8,1.8,1.8,2.3,3
			c0.6,1.5,0.8,3.1,0.8,4.6c0.1,1.9-0.5,3.8-1.5,5.4c-1,1.5-2.6,2.6-4.4,3V19c2,0.2,3.8,1.2,5.1,2.7c1.3,1.8,2,4,1.9,6.2
			c0,1.5-0.2,2.9-0.6,4.3c-0.4,1.3-1.1,2.6-2,3.6c-1,1.1-2.3,1.9-3.7,2.5c-1.8,0.7-3.8,1-5.7,0.9h-13.1V0.8z M228.9,16.5h2.2
			c1.7,0.1,3.3-0.3,4.7-1.2c1.1-1,1.6-2.4,1.5-3.9c0-1.8-0.4-3.1-1.3-3.9c-1.2-0.9-2.8-1.3-4.3-1.1h-2.8L228.9,16.5z M228.9,33.5h3
			c1.6,0.1,3.2-0.4,4.5-1.2c1.2-0.8,1.7-2.4,1.7-4.6c0-0.9-0.1-1.9-0.5-2.8c-0.3-0.7-0.7-1.3-1.2-1.8c-0.5-0.5-1.2-0.8-1.9-0.9
			c-0.8-0.2-1.6-0.3-2.4-0.3h-3.3L228.9,33.5z"/>
		<path id="Rectangle_76" class="st0" d="M92.2,47.1h149.1c2.8,0,5,2.2,5,5v38.2c0,2.8-2.2,5-5,5H92.2c-2.8,0-5-2.2-5-5V52.1
			C87.2,49.4,89.4,47.1,92.2,47.1z"/>
	</g>
</g>
<g>
	<path class="st1" d="M119.1,57.5h4.3l11.4,29.1h-4.3l-3.2-8.8H115l-3.3,8.8h-4L119.1,57.5z M116.2,74.6h9.9L121.3,61h-0.1
		L116.2,74.6z"/>
	<path class="st1" d="M156.5,86.6H153v-2.9H153c-0.6,1.2-1.5,2-2.7,2.5c-1.2,0.5-2.6,0.8-4,0.8c-1.6,0-3.1-0.3-4.3-0.9
		c-1.2-0.6-2.2-1.4-3-2.4c-0.8-1-1.4-2.2-1.8-3.5s-0.6-2.7-0.6-4.2s0.2-2.9,0.6-4.2c0.4-1.3,1-2.5,1.8-3.5c0.8-1,1.8-1.8,3-2.4
		c1.2-0.6,2.6-0.9,4.2-0.9c0.5,0,1.1,0.1,1.8,0.2c0.6,0.1,1.3,0.3,1.9,0.6c0.6,0.3,1.2,0.6,1.8,1c0.6,0.4,1,0.9,1.4,1.6h0.1V57.5
		h3.5V86.6z M140.2,76.3c0,1,0.1,1.9,0.4,2.9c0.3,0.9,0.7,1.8,1.2,2.5s1.2,1.3,2,1.8c0.8,0.4,1.8,0.7,2.9,0.7c1.2,0,2.2-0.2,3-0.7
		c0.8-0.5,1.5-1.1,2-1.8c0.5-0.7,0.9-1.6,1.1-2.5c0.2-1,0.3-1.9,0.3-2.9c0-1-0.1-2-0.4-3c-0.2-1-0.6-1.8-1.2-2.6s-1.2-1.3-2.1-1.8
		c-0.8-0.4-1.9-0.7-3.1-0.7c-1.2,0-2.2,0.2-3,0.7c-0.8,0.5-1.5,1.1-2,1.8s-0.8,1.6-1.1,2.6C140.3,74.2,140.2,75.2,140.2,76.3z"/>
	<path class="st1" d="M162.4,65.5h3.3v3.1h0.1c1.6-2.4,3.8-3.6,6.8-3.6c1.3,0,2.5,0.3,3.5,0.8c1.1,0.5,1.8,1.5,2.2,2.8
		c0.7-1.1,1.6-2,2.8-2.7c1.2-0.6,2.4-0.9,3.8-0.9c1.1,0,2,0.1,2.9,0.3c0.9,0.2,1.6,0.6,2.2,1.1c0.6,0.5,1.1,1.1,1.4,1.9
		s0.5,1.7,0.5,2.8v15.5h-3.5V72.8c0-0.7-0.1-1.3-0.2-1.8s-0.3-1.1-0.6-1.5c-0.3-0.4-0.7-0.8-1.2-1c-0.5-0.2-1.2-0.4-2.1-0.4
		c-1.7,0-3.1,0.5-4,1.5c-1,1-1.5,2.3-1.5,3.9v13.1h-3.5V72.8c0-0.7-0.1-1.3-0.2-1.9s-0.3-1.1-0.6-1.5c-0.3-0.4-0.7-0.7-1.2-1
		c-0.5-0.2-1.1-0.3-1.9-0.3c-1,0-1.9,0.2-2.6,0.6s-1.3,0.9-1.8,1.5c-0.4,0.6-0.8,1.2-1,1.8c-0.2,0.6-0.3,1.1-0.3,1.5v13.1h-3.5V65.5
		z"/>
	<path class="st1" d="M201.5,61.7H198v-4.2h3.5V61.7z M198,65.5h3.5v21.1H198V65.5z"/>
	<path class="st1" d="M207.4,65.5h3.3v3.3h0.1c1.4-2.6,3.7-3.8,6.9-3.8c1.4,0,2.5,0.2,3.5,0.6s1.7,0.9,2.2,1.6s1,1.5,1.2,2.4
		s0.3,2,0.3,3.1v13.9h-3.5V72.3c0-1.3-0.4-2.3-1.1-3.1s-1.8-1.1-3.1-1.1c-1.1,0-2,0.2-2.8,0.5c-0.8,0.3-1.4,0.8-1.9,1.4
		s-0.9,1.3-1.2,2.1c-0.3,0.8-0.4,1.7-0.4,2.6v11.9h-3.5V65.5z"/>
</g>
</svg>
