<?xml version="1.0" encoding="utf-8"?>
<!-- Generator: Adobe Illustrator 23.0.1, SVG Export Plug-In . SVG Version: 6.00 Build 0)  -->
<svg version="1.1" id="Layer_1" xmlns="http://www.w3.org/2000/svg" xmlns:xlink="http://www.w3.org/1999/xlink" x="0px" y="0px"
	 viewBox="0 0 122 47.2" style="enable-background:new 0 0 122 47.2;" xml:space="preserve">
<style type="text/css">
	.st0{fill:#282829;}
</style>
<g transform="translate(0 0.003)">
	<g id="Layer_8" transform="translate(0 -0.003)">
		<path id="Path_1" class="st0" d="M0.4,13h5.7c1.9,0,3.5,1.6,3.5,3.5l0,0v30.3c0,0.2-0.2,0.4-0.4,0.4c0,0,0,0,0,0H3.5
			c-1.9,0-3.5-1.6-3.5-3.5V13.5C0,13.2,0.2,13,0.4,13C0.4,13,0.4,13,0.4,13z"/>
		<path id="Path_2" class="st0" d="M23.1,13h5.7c1.9,0,3.5,1.6,3.5,3.5v30.3c0,0.2-0.2,0.4-0.4,0.4l0,0h-5.7c-1.9,0-3.5-1.6-3.5-3.5
			V13.5C22.6,13.2,22.8,13,23.1,13L23.1,13z"/>
		<path id="Path_3" class="st0" d="M10.6,0.2h7.9c1.9,0,3.5,1.6,3.5,3.5c0,0,0,0,0,0v7.7c0,0.2-0.2,0.4-0.4,0.4c0,0,0,0,0,0h-7.9
			c-1.9,0-3.5-1.6-3.5-3.5c0,0,0,0,0,0V0.7C10.2,0.4,10.4,0.2,10.6,0.2z"/>
		<path id="Path_4" class="st0" d="M47,13.5V14c0,0.4,0,0.8,0.1,1.2c0.1,0.3,0.2,0.7,0.4,0.9c0.2,0.3,0.5,0.5,0.8,0.6
			c0.4,0.2,0.8,0.2,1.2,0.2c0.6,0,1.1-0.2,1.6-0.6c0.5-0.4,0.8-1.1,0.7-1.8c0-0.4-0.1-0.8-0.2-1.1c-0.1-0.3-0.3-0.6-0.6-0.8
			c-0.3-0.3-0.7-0.5-1.1-0.7c-0.5-0.2-1.1-0.4-1.6-0.6c-0.8-0.2-1.5-0.6-2.2-0.9c-0.6-0.3-1.1-0.7-1.6-1.2c-0.4-0.5-0.7-1-0.9-1.6
			c-0.2-0.7-0.3-1.4-0.3-2.1C43.3,4,43.9,2.5,45,1.4c1.2-1,2.8-1.5,4.3-1.4c0.8,0,1.6,0.1,2.4,0.3c0.7,0.2,1.3,0.5,1.9,0.9
			c0.5,0.4,1,1,1.2,1.6c0.3,0.7,0.5,1.5,0.4,2.3v0.5h-3.7c0-0.7-0.1-1.5-0.5-2.1c-0.4-0.5-1-0.8-1.6-0.7c-0.4,0-0.7,0.1-1.1,0.2
			c-0.3,0.1-0.5,0.3-0.7,0.5c-0.2,0.2-0.3,0.5-0.3,0.7c-0.1,0.3-0.1,0.5-0.1,0.8c0,0.5,0.1,1,0.4,1.5c0.4,0.5,1,0.9,1.6,1.1l3,1.3
			c0.6,0.3,1.2,0.6,1.8,1c0.4,0.3,0.8,0.7,1.1,1.1c0.3,0.4,0.5,0.8,0.6,1.3c0.1,0.5,0.2,1.1,0.2,1.6c0.1,1.7-0.5,3.3-1.7,4.4
			c-1.4,1-3.1,1.5-4.9,1.4c-2.2,0-3.7-0.5-4.7-1.4c-1-1.1-1.5-2.6-1.4-4.1v-0.8L47,13.5z"/>
		<path id="Path_5" class="st0" d="M69.1,0.4v3.2h-6.8V8h6.4v3.1h-6.4v5.1h7.1v3.2H58.4V0.4H69.1z"/>
		<path id="Path_6" class="st0" d="M72,0.4h6.4c0.7,0,1.5,0.1,2.2,0.2c0.6,0.1,1.2,0.4,1.7,0.8c0.5,0.4,0.9,0.9,1.1,1.5
			c0.3,0.7,0.4,1.5,0.4,2.3c0,0.9-0.2,1.9-0.7,2.7c-0.5,0.8-1.3,1.3-2.2,1.5v0.1c1,0.1,1.9,0.6,2.5,1.4c0.7,0.9,1,2,0.9,3.1
			c0,0.7-0.1,1.4-0.3,2.1c-0.2,0.7-0.5,1.3-1,1.8c-0.5,0.5-1.1,1-1.8,1.2c-0.9,0.3-1.9,0.5-2.8,0.5H72V0.4z M75.8,8.2h1.1
			c0.8,0.1,1.6-0.1,2.3-0.6C79.8,7.1,80,6.4,80,5.7C80,5,79.8,4.3,79.3,3.8c-0.6-0.4-1.4-0.6-2.1-0.6h-1.4L75.8,8.2z M75.8,16.6h1.5
			c0.8,0,1.6-0.2,2.2-0.6c0.6-0.6,1-1.4,0.8-2.3c0-0.5-0.1-0.9-0.2-1.4c-0.1-0.3-0.3-0.6-0.6-0.9c-0.3-0.2-0.6-0.4-0.9-0.5
			c-0.4-0.1-0.8-0.1-1.2-0.1h-1.7L75.8,16.6z"/>
		<path id="Path_7" class="st0" d="M90.6,13.5V14c0,0.4,0,0.8,0.1,1.2c0.1,0.3,0.2,0.7,0.4,0.9c0.2,0.3,0.5,0.5,0.8,0.6
			c0.4,0.2,0.8,0.2,1.2,0.2c0.6,0,1.1-0.2,1.6-0.6c0.5-0.4,0.8-1.1,0.7-1.8c0-0.4-0.1-0.8-0.2-1.1c-0.1-0.3-0.3-0.6-0.6-0.8
			c-0.3-0.3-0.7-0.5-1.1-0.7c-0.5-0.2-1.1-0.4-1.6-0.6c-0.8-0.2-1.5-0.6-2.2-0.9c-0.6-0.3-1.1-0.7-1.6-1.2c-0.4-0.5-0.7-1-0.9-1.6
			C87.1,7,87,6.3,87,5.6c-0.1-1.6,0.5-3.1,1.6-4.2c1.2-1,2.8-1.5,4.3-1.4c0.8,0,1.6,0.1,2.4,0.3c0.7,0.2,1.3,0.5,1.9,0.9
			c0.5,0.4,1,1,1.2,1.6c0.3,0.7,0.5,1.5,0.4,2.3v0.5h-3.7c0-0.7-0.1-1.5-0.5-2.1c-0.4-0.5-1-0.8-1.6-0.7c-0.4,0-0.7,0.1-1.1,0.2
			c-0.3,0.1-0.5,0.3-0.7,0.5C91.1,3.7,91,4,90.9,4.2c-0.1,0.3-0.1,0.5-0.1,0.8c0,0.5,0.1,1,0.4,1.5c0.4,0.5,1,0.9,1.6,1.1l3,1.3
			c0.6,0.3,1.2,0.6,1.8,1c0.4,0.3,0.8,0.7,1.1,1.1c0.3,0.4,0.5,0.8,0.6,1.3c0.1,0.5,0.2,1.1,0.2,1.6c0.1,1.7-0.5,3.3-1.7,4.4
			c-1.4,1-3.1,1.5-4.9,1.4c-2.2,0-3.7-0.5-4.7-1.4c-1-1.1-1.5-2.6-1.4-4.1v-0.8L90.6,13.5z"/>
		<path id="Path_8" class="st0" d="M102.2,19.4V0.4h3.8v19.1H102.2z"/>
		<path id="Path_9" class="st0" d="M109.6,0.4h6.4c0.7,0,1.5,0.1,2.2,0.2c0.6,0.1,1.2,0.4,1.7,0.8c0.5,0.4,0.9,0.9,1.1,1.5
			c0.3,0.7,0.4,1.5,0.4,2.3c0,0.9-0.2,1.9-0.7,2.7c-0.5,0.8-1.3,1.3-2.2,1.5v0.1c1,0.1,1.9,0.6,2.5,1.4c0.7,0.9,1,2,0.9,3.1
			c0,0.7-0.1,1.4-0.3,2.1c-0.2,0.7-0.5,1.3-1,1.8c-0.5,0.5-1.1,1-1.8,1.2c-0.9,0.3-1.9,0.5-2.8,0.5h-6.5V0.4z M113.4,8.2h1.1
			c0.8,0.1,1.6-0.1,2.3-0.6c0.5-0.5,0.8-1.2,0.7-1.9c0.1-0.7-0.2-1.4-0.7-1.9c-0.6-0.4-1.4-0.6-2.1-0.6h-1.4L113.4,8.2z M113.4,16.6
			h1.5c0.8,0,1.6-0.2,2.2-0.6c0.6-0.6,1-1.4,0.9-2.3c0-0.5-0.1-0.9-0.2-1.4c-0.1-0.3-0.3-0.6-0.6-0.9c-0.3-0.2-0.6-0.4-0.9-0.5
			c-0.4-0.1-0.8-0.1-1.2-0.1h-1.7L113.4,16.6z"/>
		<g>
			<path class="st0" d="M50,28.8h4.1L61,47.2h-4.2l-1.4-4.1h-6.9l-1.4,4.1H43L50,28.8z M49.6,40.1h4.8L52,33.4H52L49.6,40.1z"/>
			<path class="st0" d="M71.7,45.5L71.7,45.5c-0.5,0.7-1,1.2-1.7,1.6c-0.7,0.3-1.5,0.5-2.4,0.5c-1,0-1.9-0.2-2.6-0.6
				s-1.4-0.9-1.9-1.6c-0.5-0.7-0.9-1.4-1.1-2.3s-0.4-1.8-0.4-2.7c0-0.9,0.1-1.8,0.4-2.6s0.6-1.6,1.1-2.2s1.1-1.1,1.8-1.5
				c0.7-0.4,1.6-0.6,2.6-0.6c0.8,0,1.5,0.2,2.3,0.5s1.3,0.8,1.7,1.5h0.1v-6.7h3.7v18.4h-3.5V45.5z M71.7,40.5c0-0.5-0.1-1.1-0.2-1.6
				c-0.1-0.5-0.3-1-0.5-1.3s-0.6-0.7-1-0.9c-0.4-0.2-0.9-0.4-1.5-0.4s-1.1,0.1-1.5,0.4c-0.4,0.2-0.7,0.6-1,1
				c-0.2,0.4-0.4,0.8-0.5,1.4c-0.1,0.5-0.2,1-0.2,1.6c0,0.5,0.1,1,0.2,1.5s0.3,1,0.6,1.4c0.3,0.4,0.6,0.7,1,1
				c0.4,0.2,0.9,0.4,1.5,0.4c0.6,0,1.1-0.1,1.5-0.4c0.4-0.2,0.7-0.6,1-1c0.2-0.4,0.4-0.9,0.5-1.4C71.6,41.6,71.7,41.1,71.7,40.5z"/>
			<path class="st0" d="M78.1,33.9h3.5v1.8h0.1c0.5-0.7,1.1-1.2,1.7-1.6s1.5-0.6,2.3-0.6c0.8,0,1.6,0.2,2.3,0.5
				c0.7,0.3,1.2,0.9,1.6,1.7c0.4-0.6,0.9-1.1,1.6-1.5c0.7-0.4,1.5-0.7,2.4-0.7c0.7,0,1.4,0.1,2,0.3s1.1,0.4,1.5,0.8
				c0.4,0.4,0.8,0.9,1,1.5c0.2,0.6,0.4,1.3,0.4,2.2v8.9h-3.7v-7.6c0-0.4,0-0.9-0.1-1.3c0-0.4-0.1-0.7-0.3-1
				c-0.2-0.3-0.4-0.5-0.7-0.7c-0.3-0.2-0.7-0.3-1.2-0.3s-0.9,0.1-1.3,0.3c-0.3,0.2-0.6,0.5-0.7,0.8c-0.2,0.3-0.3,0.7-0.4,1.1
				s-0.1,0.8-0.1,1.2v7.4h-3.7v-7.5c0-0.4,0-0.8,0-1.2c0-0.4-0.1-0.7-0.2-1.1c-0.1-0.3-0.3-0.6-0.6-0.8s-0.7-0.3-1.3-0.3
				c-0.2,0-0.4,0-0.7,0.1c-0.3,0.1-0.6,0.2-0.8,0.4c-0.3,0.2-0.5,0.5-0.7,0.9c-0.2,0.4-0.3,0.9-0.3,1.6v7.7h-3.7V33.9z"/>
			<path class="st0" d="M105.1,31.9h-3.7v-3h3.7V31.9z M101.4,33.9h3.7v13.3h-3.7V33.9z"/>
			<path class="st0" d="M107.9,33.9h3.5v1.9h0.1c0.5-0.8,1.1-1.3,1.8-1.7c0.7-0.4,1.5-0.5,2.3-0.5c1,0,1.8,0.1,2.4,0.4
				c0.6,0.3,1.1,0.6,1.5,1.1c0.4,0.5,0.6,1,0.8,1.7c0.1,0.7,0.2,1.4,0.2,2.3v8.2h-3.7v-7.5c0-1.1-0.2-1.9-0.5-2.5
				c-0.3-0.5-1-0.8-1.8-0.8c-1,0-1.7,0.3-2.2,0.9c-0.4,0.6-0.7,1.6-0.7,2.9v7h-3.7V33.9z"/>
		</g>
	</g>
</g>
</svg>
